{"title":"River (BBC) 2015 S01E05 x264 RB58.mp4","uid":12738303,"size":666889365,"categoryP":"video","categoryS":"tv_shows","magnet":"?xt=urn:btih:dc1a010f02bf603c4cb95f7085ed48795c1404a1&amp;dn=River+%28BBC%29+2015+S01E05+x264+RB58.mp4&amp;tr=udp%3A%2F%2Ftracker.leechers-paradise.org%3A6969&amp;tr=udp%3A%2F%2Fzer0day.ch%3A1337&amp;tr=udp%3A%2F%2Fopen.demonii.com%3A1337&amp;tr=udp%3A%2F%2Ftracker.coppersurfer.tk%3A6969&amp;tr=udp%3A%2F%2Fexodus.desync.com%3A6969","seeders":6,"leechers":0,"uploader":"RedBaron58","files":1,"time":1447208704,"description":"River (BBC) 2015 S01E05 x264 mp4\r\n \nhttp://www.imdb.com/title/tt4258440/\r\n\r\nTrailer:\r\n\r\n\r\nPlease be patient My intial upload speed is limited.\r\nThank you for your kind comments and feedback on my other torrents, your feedback is welcome.\r\n\r\n\r\nAbout the Episode:\r\nA murder in the public library draws River and Ira deep into the refugee community, where they begin to \r\ndiscover just what Stevie was investigating before her untimely death. \r\nAs the pair learn more about their late colleague's inquiries, they begin to suspect that meddling in \r\nthe affairs of this cloistered society might have been the cause of Stevie's brutal fate. \r\nMeanwhile, River finds some solace from his own troubled mind with the Hearing Voices group, \r\nbut Ira's persistence leads him to a dangerous place with devastating consequences for another \r\nof his co-workers.\r\n \r\nStarring Stellan Skarsgard and Nicola Walker \r\n\r\n\r\nI hope you enjoy.\r\n\r\n\r\nTechnical:\r\n\r\nGeneral\r\nComplete name                            : H:River (BBC) 2015 S01E05 x264 RB58.mp4\r\nFormat                                   : MPEG-4\r\nFormat profile                           : Base Media\r\nCodec ID                                 : isom\r\nFile size                                : 636 MiB\r\nDuration                                 : 58mn 28s\r\nOverall bit rate                         : 1 520 Kbps\r\nWriting application                      : Lavf54.63.104\r\n\r\nVideo\r\nID                                       : 1\r\nFormat                                   : AVC\r\nFormat/Info                              : Advanced Video Codec\r\nFormat profile                           :   \r\nFormat settings, CABAC                   : Yes\r\nFormat settings, ReFrames                : 4 frames\r\nCodec ID                                 : avc1\r\nCodec ID/Info                            : Advanced Video Coding\r\nDuration                                 : 58mn 28s\r\nBit rate                                 : 1 400 Kbps\r\nWidth                                    : 832 pixels\r\nHeight                                   : 468 pixels\r\nDisplay aspect ratio                     : 16:9\r\nFrame rate mode                          : Constant\r\nFrame rate                               : 25.000 fps\r\nColor space                              : YUV\r\nChroma subsampling                       : 4:2:0\r\nBit depth                                : 8 bits\r\nScan type                                : Progressive\r\nBits/(Pixel*Frame)                       : 0.144\r\nStream size                              : 586 MiB (92%)\r\nWriting library                          : x264 core 123 r2189 35cf912\r\nEncoding settings                        : cabac=1 / ref=3 / deblock=1:0:0\r\n\r\nAudio\r\nID                                       : 2\r\nFormat                                   : AAC\r\nFormat/Info                              : Advanced Audio Codec\r\nFormat profile                           : LC\r\nCodec ID                                 : 40\r\nDuration                                 : 58mn 28s\r\nBit rate mode                            : Constant\r\nBit rate                                 : 112 Kbps\r\nChannel(s)                               : 2 channels\r\nChannel positions                        : Front: L R\r\nSampling rate                            : 48.0 KHz\r\nCompression mode                         : Lossy\r\nStream size                              : 46.8 MiB (7%)","torrent":{"xt":"urn:btih:dc1a010f02bf603c4cb95f7085ed48795c1404a1","amp;dn":"River+%28BBC%29+2015+S01E05+x264+RB58.mp4","amp;tr":["udp%3A%2F%2Ftracker.leechers-paradise.org%3A6969","udp%3A%2F%2Fzer0day.ch%3A1337","udp%3A%2F%2Fopen.demonii.com%3A1337","udp%3A%2F%2Ftracker.coppersurfer.tk%3A6969","udp%3A%2F%2Fexodus.desync.com%3A6969"],"infoHash":"dc1a010f02bf603c4cb95f7085ed48795c1404a1","infoHashBuffer":{"type":"Buffer","data":[220,26,1,15,2,191,96,60,76,185,95,112,133,237,72,121,92,20,4,161]},"announce":[],"urlList":[]}}